# xmcd
#
# Track frame offsets:
#	150
#	11825
#	25970
#	36362
#	48300
#	60405
#	81667
#	92725
#	109430
#	121800
#	136460
#	150277
#	175090
#	189072
#	201840
#
# Disc length: 2852 seconds
#
# Revision: 1
# Processed by: cddbd v1.5PL3 Copyright (c) Steve Scherf et al.
# Submitted via: audiograbber 1.83.01
#
DISCID=c30b220f
DTITLE=Magic Frankie and Kaz Lux - Heart's In Sorrow
DYEAR=1996
DGENRE=Blues
TTITLE0=Comin' Home
TTITLE1=Sweet Pain
TTITLE2=Heart's In Sorrow
TTITLE3=Dentist Blues
TTITLE4=Walk Right In
TTITLE5=Cryin' Over You
TTITLE6=Cruel Train
TTITLE7=Wee Midnight Blues
TTITLE8=Please Don't Bury Me
TTITLE9=I'm A Stranger Here
TTITLE10=Believe To My Soul
TTITLE11=Cannibals
TTITLE12=Downside Up
TTITLE13=Need Somebody On Your Bond
TTITLE14=Louis Collins
EXTD=
EXTT0=
EXTT1=
EXTT2=
EXTT3=
EXTT4=
EXTT5=
EXTT6=
EXTT7=
EXTT8=
EXTT9=
EXTT10=
EXTT11=
EXTT12=
EXTT13=
EXTT14=
PLAYORDER=
